<svg width="1024" height="1024" viewBox="0 0 1024 1024" fill="none" xmlns="http://www.w3.org/2000/svg">
<rect width="1024" height="1024" fill="#EFECE8"/>
<path d="M475.631 169.6C475.631 170.4 475.631 170.8 475.631 172L476.031 173.2C476.031 173.6 476.031 173.6 476.031 174C476.031 174.8 476.031 175.2 476.031 176L475.231 179.6C475.231 180.4 475.231 180.8 475.231 181.6C475.231 183.2 476.431 185.6 476.431 188C476.431 190.4 475.631 195.6 475.631 200C475.631 202.8 476.031 219.6 476.831 222.4C476.831 223.6 476.431 225.2 476.431 226.8C476.431 227.2 476.431 228 476.431 228.8L477.231 232.4C477.231 233.2 477.231 233.6 477.231 234.4C477.231 242 475.631 245.6 475.631 250.8C475.631 252.4 476.831 254.4 476.831 256.4C476.831 260.8 476.031 264.4 476.031 269.6V278.4C476.031 280.4 476.431 282 476.431 283.6C476.431 284 476.431 284.4 476.431 284.8L476.031 287.6C476.031 288 476.031 288.4 476.031 288.8V291.6C476.031 294.8 474.831 300 474.831 303.6C474.831 304 474.831 304.4 475.231 305.2L476.031 307.6C476.431 308.4 476.431 308.8 476.431 309.2C476.431 309.6 476.431 309.6 476.431 310L475.231 312C475.231 312 475.231 312.4 475.231 312.8C475.231 316 476.831 317.2 476.831 322.8C476.831 323.6 476.431 324.4 475.631 324.8C476.431 326.4 477.231 327.2 477.231 328.4C477.231 330 476.031 336 476.031 338.8C476.031 341.6 476.831 344 476.831 346.4C476.831 354.8 475.231 368 475.231 370.4C475.231 373.2 476.831 397.2 476.831 400.4C476.831 401.2 476.031 404.8 476.031 407.2C477.231 411.6 477.231 414.4 477.231 418.8C477.231 438 470.831 442 458.031 442C450.431 442 442.031 434.8 442.031 422.4C442.031 421.2 443.231 419.2 443.231 417.2C443.231 415.6 442.031 412.4 442.031 411.6C442.031 411.2 442.031 410.8 442.031 410.8L443.231 408.8C443.231 408.4 443.231 408.4 443.231 408C443.231 406.4 442.831 405.2 442.831 404C442.831 403.2 442.831 402.4 443.231 401.6L444.031 395.6C444.431 394.8 444.431 394 444.431 393.2C444.431 392.8 443.231 366.4 443.231 364.4C443.231 363.2 444.031 362.4 444.031 360.4C444.031 357.6 442.831 350.8 442.831 334C442.831 325.2 444.031 320.4 444.031 312C444.031 309.2 442.431 304.8 442.431 298.8C442.431 298 442.431 297.6 442.431 296.8L443.631 293.2C443.631 292.4 443.631 291.6 443.631 291.2C443.631 289.6 442.431 287.2 442.431 284C442.431 282.4 443.631 280.8 443.631 277.6C443.631 274 441.631 270.4 441.631 267.2C441.631 265.2 442.831 262.4 442.831 260.8C442.831 260 442.831 259.6 442.831 258.8L441.631 254.8C441.631 254 441.631 253.6 441.631 252.8C441.631 252 441.631 251.6 441.631 250.8L442.031 246.8C442.031 246 442.031 245.6 442.031 244.8C442.031 242.8 441.631 240.4 441.631 238C441.631 231.6 443.231 226.8 443.231 222.8C443.231 220.8 441.231 206.4 441.231 203.2C441.231 199.6 442.431 197.2 442.431 196C442.431 195.6 441.631 194 441.631 192.4C441.631 190.4 442.831 188.8 442.831 186.4C442.831 186 442.831 185.2 442.831 184.8L441.631 182C441.631 181.2 441.631 180.8 441.631 180.4C441.631 178.8 442.831 176.8 442.831 174.8C442.031 172.4 441.231 170 441.231 167.6C441.231 159.2 441.631 147.6 458.031 147.6C471.231 147.6 476.031 153.2 476.031 166L475.631 169.6ZM346.831 310.4C346.831 306.8 347.231 304 347.231 301.2C347.231 296 346.431 292 346.031 288.4C346.031 285.2 346.431 280 346.431 276.4V272L347.631 262.4C347.631 259.6 346.031 253.2 346.031 250.8C346.031 248.4 348.031 245.2 348.031 242.8C348.031 242.4 348.031 242 348.031 241.2L347.631 238.8C347.631 238 347.631 237.6 347.631 237.2C347.631 236 348.031 234.8 348.031 234C348.031 233.2 348.031 232.8 348.031 232L347.231 228.4C347.231 227.6 347.231 226.8 347.231 226.4C347.231 222 348.031 205.2 348.031 202C348.031 200 346.431 197.2 346.431 196C346.831 191.6 346.831 188 348.431 185.2C348.031 184.8 348.031 184.4 348.031 183.6C348.031 182.8 348.431 181.2 348.431 178C348.431 176 347.631 174 347.631 172.4V164.8C347.631 156.8 355.631 153.6 363.631 153.6C374.431 153.6 380.031 158.4 380.031 165.6V176C380.031 179.6 378.831 183.2 378.831 187.2C378.831 188.8 380.031 190.8 380.031 192.8C380.031 194 378.831 195.2 378.831 196.8C378.831 197.6 380.031 200.4 380.031 201.6C380.031 207.2 378.431 223.2 378.431 228.4C378.431 232.4 379.231 236 379.231 239.2C379.231 239.6 379.231 240.4 379.231 241.2L378.431 244.8C378.431 245.6 378.431 246 378.431 246.8C378.431 247.2 378.431 247.6 378.431 247.6L378.831 250C378.831 250 378.831 250.4 378.831 250.8C378.831 255.6 378.831 260 378.831 264.8C378.831 266 378.431 267.2 378.031 268C378.031 271.6 380.031 274 380.031 278.4C380.031 286.4 379.231 292.4 379.231 294V295.2C379.231 297.2 378.431 298.8 378.431 300C378.431 300.8 379.631 302.4 379.631 304.4C379.631 305.2 379.631 305.6 379.631 306.4L378.431 309.6C378.431 310.4 378.431 310.8 378.431 311.6C378.431 312.4 378.431 313.2 378.431 314L378.831 319.2C378.831 320 378.831 320.8 378.831 321.6C378.831 324 378.431 326 378.431 328C378.431 333.2 380.431 337.6 380.431 341.2C380.431 343.2 378.831 345.6 378.831 348C378.831 349.2 379.631 352 380.431 353.2C378.831 357.6 377.631 369.6 377.631 370.4C377.631 370.8 377.631 372.4 378.031 375.2L378.831 392.4C379.231 395.2 379.231 396.8 379.231 397.2C378.831 400 378.431 403.2 378.431 406L379.631 410C379.631 410.4 379.631 411.2 379.631 411.6C379.631 413.6 379.631 415.6 379.631 417.6L380.031 430C380.431 438.4 369.231 442.8 364.031 442.8C355.231 442.8 345.631 437.2 345.631 425.6C345.631 420.4 346.031 416.8 346.031 414C346.031 413.2 346.031 412.4 346.031 411.6L345.631 406.4C345.631 405.6 345.631 404.8 345.631 404C345.631 402.8 346.031 401.6 346.031 400.4L346.831 398C346.831 396.8 347.231 395.6 347.231 394.4C347.231 391.2 345.631 366.4 345.631 362.8C345.631 360.8 346.831 358 346.831 356.4C346.831 354 345.631 347.6 345.631 345.6C345.631 342.8 346.831 340.8 346.831 338.4C346.831 337.6 346.831 336.8 346.831 336L346.031 331.2C346.031 330.4 346.031 329.6 346.031 328.8C346.831 325.2 346.831 319.2 346.831 310.4ZM233.631 394.8C232.431 394.8 231.231 395.2 228.831 395.6C226.031 395.6 224.031 395.2 221.631 396C220.831 395.2 220.031 394.8 219.231 394.8C218.031 394.8 217.231 395.6 216.031 396.4C215.631 396.4 215.631 396.4 215.231 396.4L213.631 396C213.231 396 213.231 396 212.831 396C212.031 396 210.831 396 210.031 396.4C202.031 394 196.431 395.2 196.431 383.6C196.431 381.6 197.631 379.6 197.631 376.8C197.231 375.6 195.631 369.2 195.631 368C195.631 366.4 196.831 364 196.831 361.6C196.831 360 195.631 358 195.631 357.2C195.631 356 196.831 355.2 196.831 353.6C196.431 352 196.831 350.4 196.831 348.8C196.831 348.4 196.831 348 196.831 348L196.431 346C196.431 344 196.431 339.2 198.031 337.6C197.231 335.6 196.831 333.6 196.831 331.6C196.831 329.2 197.231 327.2 197.231 325.2C198.031 320.8 198.431 320 198.431 319.2C198.431 317.6 196.431 316.4 196.431 314.4C197.231 312 197.231 310 197.231 308.4L198.031 307.2C198.031 305.2 196.431 303.6 196.431 301.6C196.431 301.2 196.431 300.8 196.431 300.4L197.231 297.6C197.231 297.2 197.231 296.8 197.231 296.4C197.231 296 197.231 295.2 197.231 294.8L196.831 292C196.831 291.2 196.831 290.8 196.831 290.4V272.8C196.831 265.2 196.831 258 196.831 250.4C196.831 248.8 195.631 246.8 195.631 244.8C195.631 242.8 197.631 242 197.631 239.2C197.631 236 195.631 234 195.631 230.8C195.631 224.4 196.831 220.8 198.031 220C196.831 217.2 196.431 213.2 196.431 208.8C196.431 205.2 196.831 201.6 196.831 198.8C196.831 194.8 196.031 192 196.031 191.6C196.031 184 199.631 177.6 203.631 176.8L214.431 175.6C215.231 175.2 216.031 175.2 216.831 175.2C223.631 175.2 231.231 176 237.631 176C240.031 176 243.631 174.8 246.431 174.8C249.631 174.8 252.431 176 255.231 176C258.831 176 260.831 174.4 265.631 175.2C266.831 175.2 268.831 174.4 270.431 174.4C273.631 174.4 278.431 174.8 282.431 174.8C286.831 174 293.631 175.2 294.831 175.2C295.231 175.2 295.231 175.2 295.631 175.2L298.031 174C298.431 174 298.831 174 298.831 174C300.831 174 302.431 175.2 304.031 175.6H308.831C314.831 177.6 315.631 181.6 315.631 194.4C315.631 196.4 314.031 198.4 314.031 200.8C314.031 203.2 316.431 205.2 316.431 208C316.431 210 315.631 212.8 315.631 215.2C315.631 217.2 316.831 218.4 316.831 219.6C316.831 222 315.231 226 315.231 227.2C315.231 231.6 314.831 233.2 314.831 236C314.831 239.2 316.031 241.6 316.031 244.4C316.031 247.2 316.431 249.2 316.431 251.2C316.431 253.6 314.431 269.2 314.431 272C314.431 275.2 316.831 276 316.831 278.4C316.831 280 315.631 281.6 315.631 283.6C315.631 285.2 316.831 286.4 316.831 288.8C316.831 291.6 314.831 294.8 314.831 297.6C314.831 300.4 316.031 303.2 316.031 305.2C316.031 307.2 315.631 308.8 315.631 310.4V315.6C314.831 317.2 315.231 322.4 315.231 324C315.631 327.2 316.431 330 316.431 332.4C316.431 334 315.631 335.2 315.631 336.4C315.631 336.8 315.631 337.2 315.631 337.6L316.431 340C316.431 340.4 316.431 340.8 316.431 341.2C316.431 342.4 314.831 344 314.831 344.8C314.831 345.2 314.831 345.2 315.231 345.6L316.031 347.6C316.431 347.6 316.431 348 316.431 348.4C316.431 348.8 316.431 348.8 316.431 349.2L316.031 351.2C316.031 351.2 316.031 351.6 316.031 352C316.031 352.8 315.231 353.2 315.231 354.4C315.231 355.2 316.031 356.4 316.031 357.6C316.031 358 316.031 358.4 316.031 358.8L315.631 361.2C315.631 361.6 315.631 362 315.631 362.4C315.631 362.8 315.631 362.8 315.631 363.2L316.031 365.2C316.031 365.2 316.031 365.6 316.031 366C316.031 366.4 316.031 366.8 316.031 367.6L314.831 370C314.831 370.8 314.831 371.2 314.831 371.6C314.831 372 314.831 372.4 314.831 372.8L316.031 375.6C316.031 376 316.031 376.4 316.031 376.8C316.031 379.6 313.631 381.6 313.631 384.4C313.631 392 312.431 394 306.431 394.4C300.431 394.8 301.631 396 298.831 396C294.031 396 289.631 396.8 286.431 396.8C286.031 396.8 285.631 396.8 285.231 396.8L282.431 396C282.031 396 281.631 396 281.231 396C280.031 396 278.431 396.4 276.831 396.4H266.831C261.631 396.4 259.231 396 255.231 396C252.431 396 250.831 394.8 247.231 394.8C243.631 394.8 240.031 396.4 239.231 396.4C237.231 396.4 236.031 394.8 233.631 394.8ZM406.031 309.6C387.631 308 383.631 288 383.631 284.8C383.631 281.6 383.631 276 386.031 268.4C386.031 259.2 404.431 251.6 413.631 251.6C430.031 251.6 438.431 264.4 438.431 274.4C438.431 294 430.431 310 408.831 310L406.831 309.6C406.831 309.6 406.431 309.6 406.031 309.6ZM800.8 306.8C788.8 306.8 780.4 303.2 780.4 290.4L781.6 285.6L780.4 282.4C780.4 280.8 781.2 280 781.2 275.2C781.2 272.8 780.8 272 780.8 270.8C780.8 269.6 781.6 268 781.6 266.4C781.6 264.8 781.2 262.8 781.2 260.4C780.8 255.6 781.2 257.2 780 252C780.4 248.8 782 247.6 782.4 246C782 244.4 780 236.4 780 235.6C780 235.2 780 234.4 780.4 234L781.2 231.2C781.6 230.4 781.6 230 781.6 229.6C781.6 224.8 780 220 780 215.6C780 212.8 780.4 210.4 780.4 208C780.4 203.6 779.6 201.2 780.8 196.4C780.4 194.4 779.6 192.8 779.2 191.2C780 189.2 781.2 188.8 781.2 187.2C781.2 183.2 781.2 178 780 174.4C780.8 172.8 780.8 171.6 780.8 170.4C780.8 166.8 779.2 164 779.2 160.8C779.2 158.8 780 156.8 780 155.2C780 153.6 778.4 152.4 778.4 151.2C778.4 140.8 789.2 135.2 796 135.2C806 135.2 813.6 143.6 813.6 150C813.6 152 813.2 154.4 813.2 154.8C813.2 154.4 813.6 160 813.6 161.6C813.6 164 813.2 166 813.2 169.2C813.2 170.8 814.4 174 814 175.6L813.2 180C812.8 182 812 184.4 811.2 185.6C813.2 190.8 813.6 197.2 813.6 202.8L814 207.2C814 207.6 814 208.4 814 208.8L814.4 212C814.4 212.4 814.4 213.2 814.4 213.6C814.4 214 814.4 214.8 814.4 215.2L814 219.2C814 219.6 814 220.4 814 220.8L813.6 226C813.6 227.2 814.8 228.8 814.8 230.4C814.8 231.2 814.4 232 813.6 232.8C814.4 233.6 814.8 234.8 814.8 235.2C814.8 237.6 813.2 238.4 813.2 251.2C814 253.2 813.6 254.4 813.6 256.8V257.2L814.4 258.4C814.8 260.8 815.6 262.8 815.6 264.8C815.6 267.2 814.8 269.2 814.4 270C814 271.2 814.4 273.6 814.4 274.8L813.6 279.2L814.8 283.6L814.4 295.6C814 303.2 804.4 306.4 800.8 306.8ZM559.2 208C559.2 206.4 560.4 205.2 560.4 203.2C560.4 202.8 560.4 202.4 560.4 202.4L560 200.4C560 200 560 200 560 199.6C560 192 565.6 188 566 182.8C566.4 179.6 570 179.2 574.4 169.6C582.8 160 591.2 152.4 602.4 149.2C604.4 148.8 606.4 147.2 608 146.8C610.8 146 615.6 144.4 617.6 144.4C618.8 144.4 620 146 620.8 146C620.8 146 622 142.8 624 142.8C624.8 142.8 625.6 143.2 626.8 143.2C626.8 143.2 627.2 142.8 627.6 142.8C639.2 142.8 650 144.4 660.8 148.8C667.2 151.6 672 156 676 157.2C701.2 164.4 712 198 713.2 220C713.2 222.4 710.8 225.2 710.8 227.2C710.8 228.8 713.2 230 713.2 231.6C713.2 233.2 712.4 234.4 712.4 236.4C712.4 245.6 706.4 256 704.8 258.8C702 263.6 696.8 264.8 694.4 272.8C692.8 276.8 678 287.2 675.6 288C664.8 292 654.4 295.6 641.6 295.6C632.8 295.6 628.8 297.6 618.4 294.8C604.8 291.6 585.6 284.4 579.2 274.8C574 272.4 569.2 265.2 568.4 262C567.6 258.8 564.4 256 564.4 254.4C563.6 244 556.8 235.2 556.8 224.4C556.8 216.4 559.2 211.2 559.2 208ZM638.8 266.4C641.6 266.4 644.4 266.8 646.4 266.8C654.4 266.8 673.6 256 673.6 248C673.6 245.6 675.6 244.4 676.8 243.6L678.8 239.2C678.4 238.8 678.4 238 678.4 236.8L680 230.4L683.6 221.2V216C682 214.8 680.4 211.6 680.4 207.6C680.4 206.4 679.6 204.4 679.2 203.2L678.4 200.8C678 200.4 678 200 678 199.6C676.8 194 668.8 182.4 663.2 182.4C660.4 182.4 644 172 639.6 172C637.6 172 633.6 173.2 629.6 173.6L628.4 173.2C623.6 173.2 619.2 177.6 615.6 177.6C614.8 177.6 614 177.2 613.2 175.6C608.4 179.2 596 193.2 596 193.6C596 200.8 588.8 206.8 588.8 215.2C588.8 218.8 590.4 224.4 588.8 226.8C590 236.4 597.2 253.6 608 260.4C608.8 261.2 610.8 262.4 612 262.4C620.4 262.4 628 266.8 636.8 266.8L638 266.4C638.4 266.4 638.8 266.4 638.8 266.4Z" fill="#2A1111"/>
</svg>
